# xmcd CD database file generated by OrangeCD 5.0
#
# Track frame offsets:
#	150
#	15450
#	33800
#	51375
#
# Disc length: 859 seconds
#
# Revision: 3
# Processed by: cddbd v1.4PL0 Copyright (c) Steve Scherf et al.
# Submitted via: OrangeCD 5.0
#
DISCID=26035904
DTITLE=Steps - 5,6,7,8
DYEAR=1997
DGENRE=Country
TTITLE0=5,6,7,8 (Radio Edit)
TTITLE1=5,6,7,8 (Extended Version)
TTITLE2=Words Of Wisdom
TTITLE3=5,6,7,8 (Instumental)
EXTD=
EXTT0=
EXTT1=
EXTT2=
EXTT3=
PLAYORDER=
